<?xml version="1.0" encoding="utf-8"?>
<!-- Generator: Adobe Illustrator 23.0.6, SVG Export Plug-In . SVG Version: 6.00 Build 0)  -->
<svg version="1.1" id="Layer_1" xmlns="http://www.w3.org/2000/svg" xmlns:xlink="http://www.w3.org/1999/xlink" x="0px" y="0px"
	 viewBox="0 0 1265 200" style="enable-background:new 0 0 1265 200;" xml:space="preserve">
<style type="text/css">
	.st0{fill:#282846;}
	.st1{fill-rule:evenodd;clip-rule:evenodd;fill:#63D2F9;}
	.st2{fill-rule:evenodd;clip-rule:evenodd;fill:#4E5EE4;}
	.st3{fill-rule:evenodd;clip-rule:evenodd;fill:#63B0F9;}
</style>
<title>OZ_logo_dark</title>
<desc>Created with Sketch.</desc>
<g id="exports">
	<g>
		<g id="Group">
			<g id="Group-7">
			</g>
			<path id="OpenZeppelin" class="st0" d="M305.1,148.7c-30.1,0-52.2-21.9-52.2-51.3c0-29.1,22.3-51.3,52.4-51.3
				s52.4,22.5,52.4,51.3C357.6,126.5,335.2,148.7,305.1,148.7z M305.3,130.8c19,0,32.6-14.1,32.6-33.4c0-18.9-13.6-33.4-32.6-33.4
				c-19.2,0-32.8,14.4-32.8,33.4C272.5,116.6,286.1,130.8,305.3,130.8z M377.8,179.4V72.5H396V82h1c2-3.1,8.8-11.3,22.4-11.3
				c20.9,0,35.2,15.6,35.2,38.7s-14.2,39.3-34.6,39.3c-13.2,0-20.3-7.4-22.7-11.5h-1v42.1H377.8z M415.8,132.1
				c11.9,0,20-9.2,20-22.3c0-13.6-8.1-22.3-20.1-22.3c-12.2,0-19.9,9.8-19.9,22.3C395.8,123.6,404.3,132.1,415.8,132.1z
				 M507.3,148.7c-22,0-37.6-16.4-37.6-38.6c0-23.5,15.8-39.4,37.6-39.4c24,0,37,17.7,37,38.6v5.8h-56.8
				c0.6,11.3,8.4,18.9,20.3,18.9c9.1,0,16-4.2,18.6-10.3h17.2C540,138.8,526.6,148.7,507.3,148.7z M487.9,102.1h38.9
				c-0.9-10-8.7-16.7-19.4-16.7C497,85.4,489,92.8,487.9,102.1z M564.2,146.9V72.5h17.6v9h1c3-5.5,10.4-10.9,21-10.9
				c16.7,0,27,11.7,27,27.6v48.6h-18.4v-43.8c0-9-5.8-15.1-14.3-15.1c-8.9,0-15.3,7.1-15.3,16.4v42.6H564.2z M649.1,146.9v-16.8
				l51.7-64.9v-1h-49.8V47.9h73.4v16.7l-51.7,64.9v1.1h51.9v16.3H649.1z M774.5,148.7c-22,0-37.6-16.4-37.6-38.6
				c0-23.5,15.8-39.4,37.6-39.4c24,0,37,17.7,37,38.6v5.8h-56.8c0.6,11.3,8.4,18.9,20.3,18.9c9.1,0,16-4.2,18.6-10.3h17.2
				C807.1,138.8,793.8,148.7,774.5,148.7z M755.1,102.1H794c-0.9-10-8.7-16.7-19.4-16.7C764.2,85.4,756.2,92.8,755.1,102.1z
				 M831.4,179.4V72.5h18.2V82h1c2-3.1,8.8-11.3,22.4-11.3c20.9,0,35.2,15.6,35.2,38.7s-14.2,39.3-34.6,39.3
				c-13.2,0-20.3-7.4-22.7-11.5h-1v42.1H831.4z M869.4,132.1c11.9,0,20-9.2,20-22.3c0-13.6-8.1-22.3-20.1-22.3
				c-12.2,0-19.9,9.8-19.9,22.3C849.4,123.6,857.9,132.1,869.4,132.1z M928,179.4V72.5h18.2V82h1c2-3.1,8.8-11.3,22.4-11.3
				c20.9,0,35.2,15.6,35.2,38.7s-14.2,39.3-34.6,39.3c-13.2,0-20.3-7.4-22.7-11.5h-1v42.1H928z M966.1,132.1c11.9,0,20-9.2,20-22.3
				c0-13.6-8.1-22.3-20.1-22.3c-12.2,0-19.9,9.8-19.9,22.3C946.1,123.6,954.6,132.1,966.1,132.1z M1057.6,148.7
				c-22,0-37.6-16.4-37.6-38.6c0-23.5,15.8-39.4,37.6-39.4c24,0,37,17.7,37,38.6v5.8h-56.8c0.6,11.3,8.4,18.9,20.3,18.9
				c9.1,0,16-4.2,18.6-10.3h17.2C1090.2,138.8,1076.9,148.7,1057.6,148.7z M1038.1,102.1h38.9c-0.9-10-8.7-16.7-19.4-16.7
				C1047.2,85.4,1039.3,92.8,1038.1,102.1z M1132.6,146.9c-13.1,0-20.4-7.8-20.4-20.9V40.9h18.4v83.4c0,4.2,2.1,6.5,6,6.5h3v16.1
				H1132.6z M1166.5,62.6c-6.7,0-11.4-4.1-11.4-10.7c0-6.4,4.7-10.6,11.4-10.6s11.4,4.2,11.4,10.6
				C1177.9,58.5,1173.2,62.6,1166.5,62.6z M1157.3,146.9V72.5h18.4v74.4H1157.3z M1198.2,146.9V72.5h17.6v9h1
				c3-5.5,10.4-10.9,21-10.9c16.7,0,27,11.7,27,27.6v48.6h-18.4v-43.8c0-9-5.8-15.1-14.3-15.1c-8.9,0-15.3,7.1-15.3,16.4v42.6
				H1198.2z"/>
		</g>
		<path class="st1" d="M179.9,199.1H67.6l18.3-30.6c7.9-13.2,22.1-21.2,37.5-21.2h56.5V199.1z"/>
		<polygon class="st2" points="0,0 179.9,0 148.9,51.8 0,51.8 		"/>
		<path class="st3" d="M71.2,81c8.6-14.4,24.2-23.2,41-23.2h33.4l-85,141.3H0.2L71.2,81z"/>
	</g>
</g>
</svg>
